<svg width="70" height="70" viewBox="0 0 42 30" fill="none" xmlns="http://www.w3.org/2000/svg">
<g filter="url(#filter0_d)">
<path d="M10.568 21.12C9.976 21.12 9.552 20.992 9.296 20.736C9.04 20.464 8.912 19.96 8.912 19.224C8.912 18.728 8.96 18.096 9.056 17.328C9.168 16.544 9.344 15.472 9.584 14.112C10 11.6 10.328 9.424 10.568 7.584C10.712 6.432 10.784 5.472 10.784 4.704C10.784 3.984 10.52 3.624 9.992 3.624C9.576 3.624 9.072 3.84 8.48 4.272C7.904 4.688 7.264 5.36 6.56 6.288C6.336 6.592 6.088 6.744 5.816 6.744C5.592 6.744 5.392 6.64 5.216 6.432C5.056 6.208 4.976 5.96 4.976 5.688C4.976 5.432 5.024 5.176 5.12 4.92C5.232 4.648 5.408 4.344 5.648 4.008C6.416 2.936 7.272 2.112 8.216 1.536C9.16 0.943999 10.104 0.647999 11.048 0.647999C11.928 0.647999 12.6 0.927999 13.064 1.488C13.544 2.048 13.784 2.864 13.784 3.936C13.784 4.368 13.744 4.88 13.664 5.472C13.584 6.048 13.512 6.52 13.448 6.888C13.384 7.256 13.336 7.512 13.304 7.656C14.216 5.048 15.24 3.232 16.376 2.208C17.512 1.168 18.76 0.647999 20.12 0.647999C21.16 0.647999 21.976 1.016 22.568 1.752C23.176 2.488 23.48 3.528 23.48 4.872C23.48 5.4 23.408 6.056 23.264 6.84C24.064 4.632 25 3.048 26.072 2.088C27.144 1.128 28.376 0.647999 29.768 0.647999C30.888 0.647999 31.744 1.008 32.336 1.728C32.944 2.448 33.248 3.456 33.248 4.752C33.248 5.456 33.144 6.312 32.936 7.32L31.472 14.184C31.312 14.984 31.232 15.672 31.232 16.248C31.232 16.92 31.384 17.424 31.688 17.76C32.008 18.096 32.448 18.264 33.008 18.264C33.536 18.264 34.048 18.088 34.544 17.736C35.056 17.384 35.656 16.8 36.344 15.984C36.536 15.76 36.752 15.648 36.992 15.648C37.2 15.648 37.36 15.744 37.472 15.936C37.6 16.128 37.664 16.392 37.664 16.728C37.664 17.352 37.512 17.848 37.208 18.216C36.376 19.224 35.552 19.96 34.736 20.424C33.92 20.888 33.064 21.12 32.168 21.12C30.808 21.12 29.744 20.72 28.976 19.92C28.208 19.104 27.824 18.016 27.824 16.656C27.824 15.712 28.016 14.344 28.4 12.552L29.36 8.16C29.392 8.016 29.448 7.76 29.528 7.392C29.608 7.024 29.672 6.68 29.72 6.36C29.768 6.024 29.792 5.696 29.792 5.376C29.792 4.816 29.68 4.4 29.456 4.128C29.248 3.84 28.944 3.696 28.544 3.696C27.792 3.696 27 4.184 26.168 5.16C25.352 6.12 24.568 7.72 23.816 9.96C23.08 12.2 22.48 15.112 22.016 18.696C21.904 19.656 21.704 20.304 21.416 20.64C21.144 20.96 20.696 21.12 20.072 21.12C19.528 21.12 19.128 20.992 18.872 20.736C18.632 20.48 18.512 20 18.512 19.296C18.512 18.64 18.6 17.784 18.776 16.728C18.952 15.656 19.176 14.4 19.448 12.96C20.184 9.088 20.552 6.592 20.552 5.472C20.552 4.864 20.432 4.416 20.192 4.128C19.968 3.84 19.624 3.696 19.16 3.696C18.376 3.696 17.568 4.144 16.736 5.04C15.904 5.92 15.088 7.496 14.288 9.768C13.504 12.024 12.848 15.08 12.32 18.936C12.208 19.752 12.04 20.32 11.816 20.64C11.608 20.96 11.192 21.12 10.568 21.12Z" fill="black"/>
</g>
<defs>
<filter id="filter0_d" x="0.976013" y="0.64801" width="40.688" height="28.472" filterUnits="userSpaceOnUse" color-interpolation-filters="sRGB">
<feFlood flood-opacity="0" result="BackgroundImageFix"/>
<feColorMatrix in="SourceAlpha" type="matrix" values="0 0 0 0 0 0 0 0 0 0 0 0 0 0 0 0 0 0 127 0"/>
<feOffset dy="4"/>
<feGaussianBlur stdDeviation="2"/>
<feColorMatrix type="matrix" values="0 0 0 0 0 0 0 0 0 0 0 0 0 0 0 0 0 0 0.25 0"/>
<feBlend mode="normal" in2="BackgroundImageFix" result="effect1_dropShadow"/>
<feBlend mode="normal" in="SourceGraphic" in2="effect1_dropShadow" result="shape"/>
</filter>
</defs>
</svg>
